<svg xmlns="http://www.w3.org/2000/svg" xmlns:xlink="http://www.w3.org/1999/xlink" fill="none" version="1.1" width="119" height="42" viewBox="0 0 119 42"><defs><clipPath id="master_svg0_2_53265/207_08957"><rect x="0" y="0" width="42" height="42" rx="0"/></clipPath><linearGradient x1="0.3390139937400818" y1="-0.16706715524196625" x2="1.2805626949568587" y2="0.37527702746759006" id="master_svg1_169_25913"><stop offset="0%" stop-color="#408DFC" stop-opacity="1"/><stop offset="51.0758638381958%" stop-color="#4044ED" stop-opacity="1"/><stop offset="100%" stop-color="#AA75EF" stop-opacity="1"/></linearGradient></defs><g><g clip-path="url(#master_svg0_2_53265/207_08957)"><g><path d="M18.47958046875,15.484145576171874C18.57548046875,15.201045576171875,18.624380468749997,14.904175576171875,18.624380468749997,14.605285576171875C18.624380468749997,13.091715576171875,17.39738046875,11.864715576171875,15.88378046875,11.864715576171875C14.37018046875,11.864715576171875,13.14318046875,13.091715576171875,13.14318046875,14.605285576171875C13.14318046875,14.971725576171874,13.21668046875,15.334455576171875,13.35928046875,15.671995576171875C13.28528046875,17.061865576171876,12.17564046875,18.176885576171877,10.78805046875,18.259475576171873C10.78169046875,18.259425576171875,10.77534046875,18.259405576171876,10.76899046875,18.259405576171876C10.71426046875,18.259405576171876,10.65955046875,18.261045576171874,10.604920468749999,18.264315576171875C10.57739046875,18.264145576171874,10.549860468750001,18.263545576171875,10.52235046875,18.262545576171874L10.51507046875,18.271195576171877C9.10596046875,18.402315576171876,8.02842046875,19.584775576171875,8.02842046875,20.999975576171877C8.02842046875,21.114365576171878,8.03558046875,21.228635576171875,8.049860468750001,21.342125576171874L8.04643046875,21.346205576171876C8.051180468750001,21.368685576171877,8.05566046875,21.391225576171877,8.05984046875,21.413795576171875C8.06423046875,21.442495576171876,8.069070468749999,21.471125576171875,8.074360468750001,21.499675576171875C8.09527046875,21.636545576171876,8.10578046875,21.774875576171873,8.10578046875,21.913515576171875C8.10578046875,23.427015576171875,6.87879046875,24.654015576171876,5.36521046875,24.654015576171876C5.33176046875,24.654015576171876,5.29831046875,24.653415576171874,5.26488046875,24.652215576171876L5.25626046875,24.662415576171874C3.83017046875,24.774315576171873,2.72998046875,25.964215576171874,2.72998046875,27.394615576171873C2.72998046875,28.908215576171877,3.9569804687500003,30.135215576171873,5.47055046875,30.135215576171873C6.98413046875,30.135215576171873,8.21112046875,28.908215576171877,8.21112046875,27.394615576171873C8.21112046875,27.213215576171876,8.19311046875,27.032315576171875,8.15736046875,26.854515576171877C8.14035046875,26.730815576171874,8.13181046875,26.606015576171878,8.13181046875,26.481115576171874C8.13181046875,24.967515576171877,9.35881046875,23.740515576171873,10.87238046875,23.740515576171873C10.88503046875,23.740515576171873,10.89768046875,23.740615576171876,10.91032046875,23.740815576171876L10.91375046875,23.736715576171875C12.36904046875,23.659715576171877,13.50958046875,22.457315576171872,13.50958046875,20.999975576171877C13.50958046875,20.730505576171876,13.46978046875,20.462505576171875,13.39158046875,20.204635576171874C13.39008046875,20.166935576171873,13.38928046875,20.129185576171874,13.38928046875,20.091425576171876C13.38928046875,18.577845576171875,14.61628046875,17.350855576171874,16.129880468750002,17.350855576171874C16.14248046875,17.350855576171874,16.15518046875,17.350945576171874,16.16778046875,17.351115576171875L16.18628046875,17.329105576171877C16.22358046875,17.324965576171877,16.260880468750003,17.320055576171875,16.297980468749998,17.314375576171877L16.30508046875,17.323965576171876C16.37178046875,17.314045576171875,16.43918046875,17.309055576171875,16.506680468749998,17.309055576171875C17.26348046875,17.309055576171875,17.87698046875,17.922555576171874,17.87698046875,18.679345576171876C17.87698046875,18.882125576171873,17.83198046875,19.082385576171873,17.74518046875,19.265665576171877L17.76788046875,19.296255576171873C17.49108046875,19.821485576171874,17.34638046875,20.406265576171876,17.34638046875,20.999975576171877C17.34638046875,21.676155576171872,17.533980468750002,22.339115576171874,17.88838046875,22.915015576171875C17.90198046875,22.955215576171874,17.91368046875,22.996115576171874,17.92358046875,23.037515576171877C18.09838046875,23.773915576171873,17.64308046875,24.512515576171875,16.90678046875,24.687215576171873C16.80348046875,24.711815576171873,16.69808046875,24.724115576171876,16.59258046875,24.724315576171875C16.39038046875,24.677615576171874,16.18358046875,24.654115576171876,15.97608046875,24.654115576171876C14.46248046875,24.654115576171876,13.23548046875,25.881115576171876,13.23548046875,27.394615576171873C13.23548046875,28.908215576171877,14.46248046875,30.135215576171873,15.97608046875,30.135215576171873C17.489680468750002,30.135215576171873,18.71668046875,28.908215576171877,18.71668046875,27.394615576171873C18.71668046875,26.991315576171875,18.62768046875,26.593015576171876,18.45598046875,26.228115576171874C18.45088046875,26.209915576171873,18.44608046875,26.191615576171877,18.44178046875,26.173215576171877C18.26698046875,25.436915576171877,18.72218046875,24.698315576171876,19.45848046875,24.523515576171874C19.61608046875,24.486115576171876,19.77838046875,24.477115576171876,19.93808046875,24.496215576171878C20.28248046875,24.600915576171875,20.64048046875,24.654115576171876,21.00048046875,24.654115576171876C21.38888046875,24.654115576171876,21.77478046875,24.592115576171874,22.14368046875,24.470615576171873C22.27508046875,24.463415576171876,22.40728046875,24.475115576171873,22.53638046875,24.505915576171873C23.27258046875,24.681315576171876,23.72718046875,25.420315576171873,23.55168046875,26.156515576171877C23.52868046875,26.253015576171876,23.49528046875,26.346715576171874,23.45208046875,26.436015576171876L23.45578046875,26.440415576171873C23.34238046875,26.745815576171875,23.28428046875,27.068915576171875,23.28428046875,27.394615576171873C23.28428046875,28.908215576171877,24.51128046875,30.135215576171873,26.02488046875,30.135215576171873C27.53838046875,30.135215576171873,28.76538046875,28.908215576171877,28.76538046875,27.394615576171873C28.76538046875,25.881115576171876,27.53838046875,24.654115576171876,26.02488046875,24.654115576171876C25.84598046875,24.654115576171876,25.66748046875,24.671615576171874,25.49198046875,24.706415576171874C25.35668046875,24.714915576171876,25.22048046875,24.703415576171874,25.08798046875,24.671815576171873C24.35178046875,24.496415576171877,23.89718046875,23.757415576171873,24.07258046875,23.021215576171876C24.07848046875,22.996415576171877,24.08508046875,22.971815576171878,24.09238046875,22.947415576171878C24.45968046875,22.364215576171873,24.65458046875,21.689135576171875,24.65458046875,20.999975576171877C24.65458046875,18.981875576171873,23.01858046875,17.345885576171874,21.00048046875,17.345885576171874C20.63948046875,17.345885576171874,20.28048046875,17.399375576171874,19.93518046875,17.504605576171876C19.85018046875,17.520895576171874,19.76388046875,17.529095576171876,19.67728046875,17.529095576171876C18.92048046875,17.529095576171876,18.306980468749998,16.915605576171874,18.306980468749998,16.158815576171875C18.306980468749998,16.029045576171875,18.325380468749998,15.900485576171874,18.36128046875,15.776865576171875C18.40268046875,15.689255576171874,18.43948046875,15.599505576171875,18.47138046875,15.508005576171875C18.474980468749997,15.501305576171875,18.47868046875,15.494615576171874,18.48238046875,15.487965576171876L18.47958046875,15.484145576171874ZM28.63778046875,15.600395576171875C28.76138046875,15.283185576171874,28.82478046875,14.945725576171874,28.82478046875,14.605285576171875C28.82478046875,13.091715576171875,27.59778046875,11.864715576171875,26.08428046875,11.864715576171875C24.57068046875,11.864715576171875,23.34368046875,13.091715576171875,23.34368046875,14.605285576171875C23.34368046875,16.015255576171874,24.41348046875,17.195145576171875,25.81678046875,17.332775576171876L25.83218046875,17.351115576171875C25.84478046875,17.350945576171874,25.85748046875,17.350855576171874,25.87008046875,17.350855576171874C27.38368046875,17.350855576171874,28.61068046875,18.577845576171875,28.61068046875,20.091425576171876C28.61068046875,20.129185576171874,28.60988046875,20.166935576171873,28.60838046875,20.204635576171874C28.53018046875,20.462505576171875,28.49038046875,20.730505576171876,28.49038046875,20.999975576171877C28.49038046875,22.457315576171872,29.63088046875,23.659715576171877,31.08618046875,23.736715576171875L31.08968046875,23.740815576171876C31.10228046875,23.740615576171876,31.11488046875,23.740515576171873,31.12758046875,23.740515576171873C32.64118046875,23.740515576171873,33.86818046875,24.967515576171877,33.86818046875,26.481115576171874C33.86818046875,26.606015576171878,33.859580468749996,26.730815576171874,33.84258046875,26.854515576171877C33.806880468749995,27.032315576171875,33.78888046875,27.213215576171876,33.78888046875,27.394615576171873C33.78888046875,28.908215576171877,35.01588046875,30.135215576171873,36.52938046875,30.135215576171873C38.04298046875,30.135215576171873,39.26998046875,28.908215576171877,39.26998046875,27.394615576171873C39.26998046875,25.964215576171874,38.16978046875,24.774315576171873,36.74368046875,24.662415576171874L36.73508046875,24.652215576171876C36.70168046875,24.653415576171874,36.66818046875,24.654015576171876,36.63478046875,24.654015576171876C35.12118046875,24.654015576171876,33.89418046875,23.427015576171875,33.89418046875,21.913515576171875C33.89418046875,21.774865576171877,33.90468046875,21.636525576171877,33.92558046875,21.499655576171875C33.930880468750004,21.471115576171876,33.935780468749996,21.442485576171876,33.94008046875,21.413785576171875C33.94428046875,21.391225576171877,33.94878046875,21.368685576171877,33.953580468750005,21.346205576171876L33.95008046875,21.342125576171874C33.96438046875,21.228635576171875,33.97158046875,21.114365576171878,33.97158046875,20.999975576171877C33.97158046875,19.584775576171875,32.89398046875,18.402315576171876,31.48488046875,18.271195576171877L31.47758046875,18.262545576171874C31.45008046875,18.263545576171875,31.42258046875,18.264145576171874,31.39508046875,18.264315576171875C31.34038046875,18.261045576171874,31.28568046875,18.259405576171876,31.23098046875,18.259405576171876C31.22458046875,18.259405576171876,31.21828046875,18.259425576171875,31.21188046875,18.259475576171873C29.80058046875,18.175475576171877,28.67678046875,17.023395576171875,28.63778046875,15.600395576171875Z" fill-rule="evenodd" fill="url(#master_svg1_169_25913)" fill-opacity="1"/></g></g><g style="opacity:0.949999988079071;"><path d="M54.66211,23.7598L54.7207,23.7598L58.373,13.28125L62.0938,13.28125L62.0938,27.5L59.2422,27.5L59.2422,17.79297L59.1836,17.7832L55.66797,27.5L53.73438,27.5L50.21875,17.763669999999998L50.16016,17.77344L50.16016,27.5L47.30859,27.5L47.30859,13.28125L51.04883,13.28125L54.66211,23.7598ZM69.2762,27.7051Q66.91290000000001,27.7051,65.5848,26.2549Q64.25659999999999,24.8047,64.25659999999999,22.5195L64.25659999999999,22.1289Q64.25659999999999,19.7559,65.5457,18.24219Q66.8348,16.72852,69.0906,16.73828Q71.2195,16.73828,72.3572,18.04199Q73.4949,19.3457,73.4949,21.5527L73.4949,23.0273L67.1961,23.0273L67.1668,23.085900000000002Q67.23519999999999,24.1699,67.826,24.8438Q68.4168,25.5176,69.5789,25.5176Q70.5359,25.5176,71.2049,25.3223Q71.8738,25.127000000000002,72.58670000000001,24.726599999999998L73.3582,26.4844Q72.7234,27.002,71.6395,27.3535Q70.5555,27.7051,69.2762,27.7051ZM69.0906,18.93555Q68.2313,18.93555,67.7674,19.526400000000002Q67.3035,20.1172,67.2059,21.0938L67.22540000000001,21.1426L70.702,21.1426L70.702,20.9277Q70.702,20,70.3211,19.46777Q69.9402,18.93555,69.0906,18.93555ZM78.0016,16.93359L78.1188,18.330080000000002Q78.6266,17.56836,79.39320000000001,17.15332Q80.15979999999999,16.73828,81.1656,16.73828Q82.1813,16.73828,82.9039,17.1875Q83.6266,17.63672,83.99770000000001,18.544919999999998Q84.4859,17.69531,85.2672,17.2168Q86.0484,16.73828,87.1031,16.73828Q88.6656,16.73828,89.5689,17.84668Q90.47229999999999,18.955080000000002,90.47229999999999,21.2305L90.47229999999999,27.5L87.6207,27.5L87.6207,21.2207Q87.6207,19.9512,87.2301,19.45312Q86.8395,18.955080000000002,86.068,18.955080000000002Q85.4625,18.955080000000002,85.01820000000001,19.22363Q84.5738,19.49219,84.31020000000001,19.9707Q84.31020000000001,20.1562,84.31989999999999,20.2881Q84.3297,20.4199,84.3297,20.5566L84.3297,27.5L81.4879,27.5L81.4879,21.2207Q81.4879,19.9805,81.09729999999999,19.46777Q80.70660000000001,18.955080000000002,79.9254,18.955080000000002Q79.3492,18.955080000000002,78.91460000000001,19.174799999999998Q78.4801,19.39453,78.1969,19.7949L78.1969,27.5L75.3551,27.5L75.3551,16.93359L78.0016,16.93359ZM104.57849999999999,21.6699Q104.57849999999999,24.2969,102.9281,26.001Q101.27770000000001,27.7051,98.63130000000001,27.7051Q95.9945,27.7051,94.35390000000001,25.9961Q92.7133,24.287100000000002,92.7133,21.6699L92.7133,19.111330000000002Q92.7133,16.50391,94.34899999999999,14.790040000000001Q95.9848,13.07617,98.6117,13.07617Q101.2582,13.07617,102.91839999999999,14.790040000000001Q104.57849999999999,16.50391,104.57849999999999,19.111330000000002L104.57849999999999,21.6699ZM101.7367,19.0918Q101.7367,17.43164,100.9066,16.36719Q100.0766,15.30273,98.6117,15.30273Q97.16640000000001,15.30273,96.36070000000001,16.36719Q95.55510000000001,17.43164,95.55510000000001,19.0918L95.55510000000001,21.6699Q95.55510000000001,23.3594,96.3656,24.4238Q97.1762,25.488300000000002,98.63130000000001,25.488300000000002Q100.0961,25.488300000000002,100.91640000000001,24.4238Q101.7367,23.3594,101.7367,21.6699L101.7367,19.0918ZM114.4465,23.789099999999998Q114.4465,22.9688,113.8752,22.4707Q113.3039,21.9727,111.8684,21.5332Q109.4074,20.791,108.13300000000001,19.7852Q106.8586,18.7793,106.8586,17.04102Q106.8586,15.29297,108.2941,14.18457Q109.72970000000001,13.07617,111.9563,13.07617Q114.3195,13.07617,115.76,14.267579999999999Q117.2004,15.45898,117.1516,17.39258L117.132,17.45117L114.3684,17.45117Q114.3684,16.38672,113.7238,15.81543Q113.0793,15.24414,111.9172,15.24414Q110.8625,15.24414,110.2863,15.75195Q109.7102,16.25977,109.7102,17.05078Q109.7102,17.77344,110.3352,18.237299999999998Q110.9602,18.701169999999998,112.4934,19.21875Q114.8371,19.8828,116.0676,20.9521Q117.298,22.0215,117.298,23.7695Q117.298,25.5957,115.8723,26.6504Q114.4465,27.7051,112.1027,27.7051Q109.8078,27.7051,108.1623,26.5625Q106.5168,25.4199,106.5656,23.1543L106.5852,23.0957L109.3488,23.0957Q109.3488,24.3555,110.091,24.9512Q110.8332,25.5469,112.1027,25.5469Q113.2453,25.5469,113.8459,25.0684Q114.4465,24.5898,114.4465,23.789099999999998Z" fill="#ffffff" fill-opacity="1"/></g></g></svg>